PathFileType	4	(X/Y/Z)	C:\Users\chris\Documents\GitHub\baseballds\vids\pitch5_Sports2D\pitch5_Sports2D_px_person02.trc
DataRate	CameraRate	NumFrames	NumMarkers	Units	OrigDataRate	OrigDataStartFrame	OrigNumFrames
30	30	5	22	m	30	93	149
Frame#	Time	Hip			RHip			RKnee			RAnkle			RBigToe			RSmallToe			RHeel			LHip			LKnee			LAnkle			LBigToe			LSmallToe			LHeel			Neck			Head			Nose			RShoulder			RElbow			RWrist			LShoulder			LElbow			LWrist		
		X1	Y1	Z1	X2	Y2	Z2	X3	Y3	Z3	X4	Y4	Z4	X5	Y5	Z5	X6	Y6	Z6	X7	Y7	Z7	X8	Y8	Z8	X9	Y9	Z9	X10	Y10	Z10	X11	Y11	Z11	X12	Y12	Z12	X13	Y13	Z13	X14	Y14	Z14	X15	Y15	Z15	X16	Y16	Z16	X17	Y17	Z17	X18	Y18	Z18	X19	Y19	Z19	X20	Y20	Z20	X21	Y21	Z21	X22	Y22	Z22
93	3.1	1514.543628076643	496.12214735456485	0.0	1523.9036419818738	497.71047658857236	0.0	1528.0172101530086	535.2908645247174	0.0	1523.257445454981	571.0337151779829	0.0	1531.4607733919559	577.9600439211583	0.0	1532.3488724026213	580.0585893900472	0.0	1520.334048804883	575.8547616287593	0.0	1505.7467680085836	496.68148778807773	0.0	1495.7273481742727	532.5442438293978	0.0	1484.2178352748326	561.9427503816252	0.0	1484.7987856411946	577.0823633784166	0.0	1480.4868049779518	575.0558921928335	0.0	1482.7952350295502	564.8443866080531	0.0	1522.7412174541412	450.49046015557315	0.0	1526.2975194978433	430.7075402632457	0.0	1525.636379331206	438.972970300698	0.0	1533.9275482115327	456.60407306936855	0.0	1534.9569123970784	473.87629192981456	0.0	1541.454421467312	485.35997865426816	0.0	1505.5074503088695	456.03084387871223	0.0	1492.836130886542	474.919012029859	0.0	1499.1968434971234	487.27944204477416	0.0
94	3.1333333333333333	1518.74713146241	495.54968557411394	0.0	1527.5557327983465	498.67991804961355	0.0	1532.3491342610535	535.5950406219949	0.0	1531.6597824945434	571.9622559302555	0.0	1539.0254924926294	575.8793776088303	0.0	1540.42337266874	579.6298015542708	0.0	1529.3133270348917	577.8058711448305	0.0	1510.1474135502	497.26369053568845	0.0	1499.4319294443449	531.1884607020687	0.0	1486.3572178989884	557.7225767226199	0.0	1484.7664294156848	571.7721274219848	0.0	1480.8568749272918	569.9100945020576	0.0	1484.8201209762822	559.3881251643872	0.0	1527.8761726820255	450.416252669796	0.0	1531.648062680952	433.6019583129942	0.0	1531.2080881736888	439.22445359953184	0.0	1538.1893311657077	456.79854574392397	0.0	1539.002578343486	472.72850648788494	0.0	1546.7734344230962	484.09460072320576	0.0	1510.4198043500687	455.8231097557261	0.0	1496.53957362629	473.3538474034059	0.0	1500.39152428202	488.76185798561437	0.0
95	3.1666666666666665	1523.1089617668852	496.2628997933621	0.0	1531.698109704053	500.61118833948615	0.0	1536.9813099996072	536.5806668102658	0.0	1538.3547030072355	572.0278104828004	0.0	1544.1100047253549	575.2046259252268	0.0	1545.9002469027723	579.7554489320871	0.0	1536.3555869015956	578.7106055787257	0.0	1514.6265041161337	498.9895813472018	0.0	1503.4207795393947	531.1975153171363	0.0	1489.286336735085	553.4346055861813	0.0	1485.303526307193	566.1624717205196	0.0	1482.325277627761	564.429009864962	0.0	1487.39643665469	554.2980989400141	0.0	1532.642560599425	451.4857954277562	0.0	1536.7431683684968	437.0234126238552	0.0	1536.6672122756968	441.0419730045486	0.0	1542.6839484873483	458.2625386220278	0.0	1543.172914921128	473.40265759415354	0.0	1552.390266072125	483.8567525664234	0.0	1515.3658102209095	457.0253047160089	0.0	1500.632299981135	473.6433065131614	0.0	1504.8363849239204	488.6728528637923	0.0
96	3.2	1527.6934045853493	498.1459722073828	0.0	1536.5188797487435	502.31116737806605	0.0	1541.6048330620372	538.3672057950209	0.0	1542.8290828058398	572.6164559136199	0.0	1547.0449834912954	576.3992629809144	0.0	1549.3122542953245	580.6678320924916	0.0	1541.0280706715498	579.2962757469612	0.0	1519.1284260366685	500.5862970659521	0.0	1507.6955855033966	532.6251293894113	0.0	1493.5895160946106	548.616556059735	0.0	1487.3859975860591	560.7534163760179	0.0	1485.3912967097522	559.1876901174343	0.0	1491.2221559513018	548.1227173192473	0.0	1537.1560001015769	453.7883475536882	0.0	1541.9482107479298	438.82044502247044	0.0	1541.5850439473634	443.75376631554496	0.0	1547.4618938615645	460.9887057181119	0.0	1547.7425810783607	476.19349811545356	0.0	1558.2466781194682	484.96220891889266	0.0	1520.1800758092902	459.495060797551	0.0	1505.0936578335418	475.3797821397067	0.0	1512.4597155584174	487.5444486046598	0.0
97	3.2333333333333334	1532.2993897463539	500.8549846164839	0.0	1541.411521513502	503.73525914463954	0.0	1545.905347429928	540.5096044129124	0.0	1545.091376716973	573.7439803546882	0.0	1548.8774748230867	578.2732772389744	0.0	1551.3275708934593	581.5973858543695	0.0	1543.219924983011	579.3486772574836	0.0	1523.4309952119618	501.8963663255553	0.0	1512.401500257872	535.2409941859858	0.0	1499.397495011617	543.932624763038	0.0	1491.3817406355645	555.6287873435447	0.0	1489.8003599838357	554.57332195872	0.0	1496.6565232321962	541.3299701127044	0.0	1541.6841577385107	457.1493784101126	0.0	1547.520543623863	439.4937399092255	0.0	1546.168412401475	446.8380655891765	0.0	1552.3326602992497	464.8185476885807	0.0	1552.779503923663	480.7947997026584	0.0	1563.9933838226243	487.22587206525486	0.0	1524.7104317824085	462.7515676827097	0.0	1509.40500597632	477.63546189727947	0.0	1519.950091179418	487.4518882531222	0.0
